Coordinates
version=1
nRows=20
nColumns=30
inDegrees=yes

Units are S.I. units (second, meters, Newtons, ...)
Angles are in degrees.

endheader
time	floatyaw	floatroll	floatpitch	floatx	floaty	floatz	pro_sup_l	deviation_l	flexion_l	cmc_flexion_l	cmc_abduction_l	mp_flexion_l	ip_flexion_l	2mcp_flexion_l	2mcp_abduction_l	2pm_flexion_l	2md_flexion_l	3mcp_flexion_l	3mcp_abduction_l	3pm_flexion_l	3md_flexion_l	4mcp_flexion_l	4mcp_abduction_l	4pm_flexion_l	4md_flexion_l	5mcp_flexion_l	5mcp_abduction_l	5pm_flexion_l	5md_flexion_l
-0.495000	-160.147433	-5.066637	-73.570646	0.072413	-0.179042	-0.022874	100.926785	3.917565	-1.328839	14.437653	7.354978	-25.892282	-41.781266	31.496565	7.409173	43.478837	29.827212	26.631259	4.323847	44.652897	28.954786	15.668781	-4.415920	52.009848	36.123987	3.204654	-8.724612	60.831298	42.596419
-0.485000	-160.147433	-5.066637	-73.570646	0.072119	-0.178741	-0.023131	100.914686	3.927565	-1.329454	14.428494	7.374811	-25.780630	-41.668496	31.483831	7.404681	43.427160	29.843468	26.581069	4.340728	44.596484	28.961534	15.665346	-4.408299	51.943825	36.132641	3.262895	-8.819190	60.700229	42.632970
-0.475000	-160.147433	-5.066637	-73.570646	0.071800	-0.178402	-0.023426	100.935339	3.942041	-1.299616	14.452023	7.389615	-25.670912	-41.564960	31.461041	7.391743	43.377446	29.872805	26.530917	4.343894	44.532240	28.971485	15.656909	-4.404870	51.862148	36.134041	3.329083	-8.873812	60.568183	42.683047
-0.465000	-160.147433	-5.066637	-73.570646	0.071444	-0.178025	-0.023771	100.993700	3.967012	-1.231005	14.516287	7.392947	-25.590231	-41.508002	31.442135	7.373948	43.333933	29.902785	26.498417	4.328334	44.466629	28.978686	15.663180	-4.407135	51.762454	36.121312	3.399115	-8.875830	60.445204	42.723876
-0.455000	-160.147433	-5.066637	-73.570646	0.071036	-0.177606	-0.024179	101.086632	4.009042	-1.123151	14.617894	7.379633	-25.558174	-41.524824	31.443885	7.357719	43.307331	29.925361	26.502131	4.296037	44.410879	28.979171	15.711049	-4.415879	51.648516	36.090556	3.475299	-8.830205	60.339941	42.733027
-0.445000	-160.147433	-5.066637	-73.570646	0.070558	-0.177146	-0.024660	101.203089	4.074396	-0.987025	14.738679	7.351061	-25.578328	-41.618996	31.475948	7.349690	43.315711	29.943145	26.553252	4.256570	44.381640	28.974757	15.824605	-4.430549	51.532666	36.044411	3.569591	-8.757782	60.260033	42.697439
-0.435000	-160.147433	-5.066637	-73.570646	0.069996	-0.176645	-0.025227	101.329278	4.167892	-0.844265	14.848683	7.317438	-25.637033	-41.765576	31.532878	7.353040	43.377297	29.967429	26.649164	4.223821	44.395666	28.972117	16.014438	-4.448680	51.432488	35.992083	3.701917	-8.687480	60.211359	42.618406
-0.425000	-160.147433	-5.066637	-73.570646	0.069343	-0.176102	-0.025892	101.456125	4.291939	-0.720711	14.916353	7.293399	-25.709205	-41.917567	31.594479	7.364754	43.496198	30.008046	26.774237	4.209995	44.457426	28.976166	16.272802	-4.466046	51.360927	35.945468	3.893578	-8.644665	60.193690	42.509227
-0.415000	-160.147433	-5.066637	-73.570646	0.068599	-0.175505	-0.026670	101.583400	4.446276	-0.636806	14.922113	7.287947	-25.767700	-42.021720	31.636563	7.376157	43.649600	30.062066	26.909416	4.219661	44.546904	28.982202	16.578815	-4.477762	51.314486	35.913499	4.157966	-8.640299	60.194110	42.387296
-0.405000	-160.147433	-5.066637	-73.570646	0.067771	-0.174826	-0.027578	101.716263	4.628991	-0.599883	14.867956	7.293940	-25.792763	-42.038729	31.646990	7.377558	43.787969	30.110178	27.045778	4.247089	44.619214	28.973787	16.911204	-4.480065	51.268180	35.897834	4.491065	-8.666307	60.185163	42.266866
-0.395000	-160.147433	-5.066637	-73.570646	0.066861	-0.174035	-0.028629	101.855740	4.839437	-0.602210	14.776879	7.283382	-25.779893	-41.961689	31.636840	7.364899	43.853836	30.124666	27.193179	4.278786	44.621767	28.929783	17.259874	-4.472012	51.184011	35.892292	4.863871	-8.700509	60.135319	42.158541
-0.385000	-160.147433	-5.066637	-73.570646	0.065862	-0.173102	-0.029831	101.989605	5.083052	-0.625357	14.681145	7.213399	-25.744975	-41.826037	31.638026	7.344006	43.812708	30.085081	27.377073	4.300270	44.522351	28.837347	17.627500	-4.456136	51.031635	35.886555	5.220252	-8.719366	60.030745	42.075406
-0.375000	-160.147433	-5.066637	-73.570646	0.064736	-0.172004	-0.031184	102.089883	5.376038	-0.648581	14.604079	7.044414	-25.724314	-41.704360	31.686095	7.328669	43.679426	29.992720	27.623155	4.303351	44.332510	28.703156	18.019517	-4.437426	50.810510	35.872367	5.485688	-8.711367	59.894583	42.038319
-0.365000	-160.147433	-5.066637	-73.570646	0.063420	-0.170726	-0.032694	102.118753	5.745943	-0.657777	14.543970	6.765506	-25.766272	-41.683325	31.795953	7.332487	43.522339	29.875533	27.937069	4.289578	44.110867	28.555556	18.430136	-4.420899	50.558625	35.848501	5.589718	-8.682404	59.785521	42.071905
-0.355000	-160.147433	-5.066637	-73.570646	0.061830	-0.169250	-0.034373	102.039813	6.224927	-0.651804	14.469269	6.413653	-25.913515	-41.828581	31.943613	7.358990	43.438068	29.779886	28.291123	4.267871	43.940498	28.434813	18.835733	-4.408832	50.338189	35.820765	5.496390	-8.649431	59.769414	42.190786
-0.345000	-160.147433	-5.066637	-73.570646	0.059881	-0.167560	-0.036237	101.828987	6.836959	-0.644177	14.330477	6.071034	-26.180686	-42.152280	32.065684	7.396708	43.506182	29.751846	28.628345	4.248001	43.889022	28.375124	19.202242	-4.399038	50.202293	35.796396	5.228639	-8.627228	59.877882	42.385045
-0.335000	-160.147433	-5.066637	-73.570646	0.057513	-0.165641	-0.038307	101.479282	7.585091	-0.659831	14.085648	5.834636	-26.537706	-42.599045	32.080785	7.423666	43.745654	29.815652	28.885110	4.234285	43.972076	28.387393	19.503829	-4.385358	50.159813	35.776314	4.872457	-8.618214	60.079076	42.615607
-0.325000	-160.147433	-5.066637	-73.570646	0.054696	-0.163486	-0.040603	100.996633	8.446161	-0.728564	13.727576	5.771045	-26.908599	-43.057483	31.926171	7.419727	44.096314	29.959180	29.021839	4.223580	44.141126	28.452190	19.742795	-4.360793	50.158882	35.750503	4.556305	-8.612878	60.279467	42.823403
-0.315000	-160.147433	-5.066637	-73.570646	0.051429	-0.161101	-0.043139	100.389711	9.376398	-0.877853	13.298467	5.880971	-27.188759	-43.391805	31.592697	7.379339	44.437760	30.134485	29.045372	4.208705	44.302718	28.526570	19.958968	-4.321894	50.099825	35.699843	4.413675	-8.600955	60.358751	42.948532
-0.305000	-160.147433	-5.066637	-73.570646	0.047721	-0.158512	-0.045923	99.661544	10.325457	-1.127483	12.884462	6.092284	-27.275010	-43.480667	31.138167	7.316530	44.639604	30.275483	29.010836	4.184684	44.358151	28.560884	20.221057	-4.271425	49.873737	35.604342	4.543855	-8.586320	60.223311	42.952445
